<svg width="100" height="100" viewBox="0 0 100 100" xmlns="http://www.w3.org/2000/svg"><path d="M50 4 L90 16 V52 C90 74 72 89 50 96 C28 89 10 74 10 52 V16 Z" fill="#021A38" stroke="#C9A84C" stroke-width="2.5"/><rect x="47.5" y="18" width="5" height="16" rx="1" fill="#E8C97A"/><rect x="42" y="22.5" width="16" height="5" rx="1" fill="#E8C97A"/><path d="M22 52 C32 46 42 46 50 52 C58 46 68 46 78 52 V72 C68 66 58 66 50 72 C42 66 32 66 22 72 Z" fill="#C9A84C"/><path d="M50 52 V72" stroke="#021A38" stroke-width="2"/><text x="50" y="82" text-anchor="middle" font-family="Georgia, serif" font-size="6" letter-spacing="0.5" fill="#E8C97A">VERITAS</text></svg>
